<?xml version="1.0" encoding="UTF-8"?>
<svg xmlns="http://www.w3.org/2000/svg" viewBox="0 0 187.71 85.97">
  <g style="fill:#FFF">
    <polygon points="163.2 70.69 26.81 70.69 32.69 78.43 26.81 85.97 163.2 85.97 157.32 78.43 163.2 70.69"/>
    <path d="m17.25,55.97c-3.78.79-7.54,1.63-11.3,2.53-.1-.44-.21-.87-.31-1.31.84-.74,1.75-1.3,2.71-1.69-1.51-6.51-3.02-13.02-4.52-19.53-.53.05-1.09.05-1.7,0-.61-.05-1.15-.14-1.64-.26-.1-.44-.21-.87-.31-1.31,4-.96,8.02-1.86,12.04-2.7.09.44.18.88.27,1.32-.41.35-.87.67-1.39.96-.51.29-1.02.53-1.52.71,1.41,6.53,2.82,13.06,4.24,19.59.51-.01,1.04,0,1.6.06.56.05,1.08.16,1.57.32.09.44.18.88.27,1.32Z"/>
    <path d="m36.93,44.9c.51-.08,1.02-.15,1.53-.23.15.36.31.8.48,1.31s.32,1.06.47,1.65c.15.59.28,1.17.39,1.75.11.58.2,1.1.26,1.57-.78.64-1.8,1.16-3.04,1.56-1.25.41-2.54.72-3.88.94-2.02.33-3.89.41-5.61.23-1.73-.18-3.27-.68-4.62-1.49-1.36-.81-2.52-1.94-3.47-3.4-.96-1.46-1.66-3.3-2.11-5.52-.44-2.2-.46-4.16-.05-5.89.41-1.73,1.13-3.22,2.17-4.48,1.04-1.26,2.34-2.27,3.9-3.04,1.56-.77,3.25-1.31,5.07-1.61,1.71-.28,3.29-.42,4.71-.41,1.42,0,2.61.14,3.54.39.05.37.1.86.15,1.44.05.59.07,1.21.07,1.87,0,.66,0,1.3-.03,1.94-.02.64-.06,1.17-.1,1.61-.54.08-1.07.16-1.61.24-.97-1.66-1.94-3.31-2.93-4.96-.25-.08-.64-.11-1.17-.1-.53.01-1.06.06-1.6.15-1.06.17-2.02.53-2.88,1.08-.86.54-1.58,1.3-2.15,2.26-.57.96-.94,2.14-1.1,3.53-.17,1.39-.08,3,.26,4.83.61,3.32,1.79,5.74,3.51,7.28,1.72,1.54,3.77,2.11,6.16,1.72.68-.11,1.26-.26,1.72-.44.46-.18.76-.38.91-.59.35-1.73.7-3.45,1.07-5.18Z"/>
    <path d="m60.08,24.72c.04,1.06.04,2.16,0,3.3-.03,1.14-.11,2.21-.23,3.22-.53.05-1.05.09-1.58.14-.72-1.33-1.44-2.66-2.17-3.99-2.43.23-4.85.49-7.28.76.33,2.87.65,5.75.98,8.62,1.55-.18,3.1-.34,4.64-.5.47-.96.94-1.92,1.41-2.88.41-.04.82-.08,1.23-.12.24,1.14.42,2.41.55,3.83.13,1.41.19,2.73.18,3.97-.4.04-.8.08-1.2.12-.64-.87-1.29-1.75-1.94-2.62-1.54.16-3.08.32-4.62.5.35,3.05.69,6.1,1.04,9.15,2.4-.27,4.8-.52,7.21-.75.51-1.55,1.03-3.11,1.56-4.66.51-.05,1.02-.09,1.54-.13.14.44.28.94.43,1.49.15.56.28,1.13.39,1.73.11.6.21,1.2.3,1.81.09.61.15,1.17.2,1.69-6.64.55-13.26,1.28-19.87,2.19-.06-.44-.12-.89-.18-1.33.39-.27.83-.53,1.32-.79.49-.26,1.01-.47,1.57-.63-.85-6.63-1.71-13.25-2.56-19.88-.53-.03-1.1-.09-1.71-.19-.61-.1-1.15-.23-1.62-.41-.06-.44-.12-.89-.18-1.33,6.85-.94,13.71-1.7,20.58-2.28Z"/>
    <path d="m89.23,48.1c-.5-.28-1.08-.61-1.75-.98-.67-.38-1.34-.87-1.99-1.46-.75.77-1.81,1.48-3.17,2.12-1.36.65-2.92,1-4.69,1.08-1.65.07-3.07-.07-4.29-.44-1.22-.37-2.23-.88-3.04-1.52-.81-.65-1.43-1.39-1.86-2.24-.43-.85-.68-1.72-.74-2.61-.07-1.08.08-2.09.46-3.03.38-.94.86-1.78,1.45-2.53.59-.75,1.23-1.39,1.93-1.94.7-.55,1.31-.98,1.83-1.29-.67-.6-1.27-1.34-1.78-2.21-.52-.87-.8-1.74-.85-2.61-.03-.59.07-1.19.31-1.79.24-.6.63-1.15,1.16-1.64.54-.49,1.21-.9,2.02-1.22.81-.32,1.77-.51,2.87-.56,1.89-.08,3.44.25,4.64.96,1.2.72,1.82,1.79,1.85,3.21.02.68-.09,1.34-.34,1.96-.24.62-.57,1.21-.97,1.76-.41.56-.88,1.08-1.41,1.59-.53.5-1.1.97-1.7,1.39,1.85,2.17,4.32,4.48,7.38,6.94.2-.26.41-.71.65-1.33.24-.62.44-1.32.61-2.11.16-.78.27-1.62.3-2.49.04-.88-.05-1.7-.27-2.48-.41-.06-.77-.16-1.08-.3-.31-.14-.63-.31-.97-.51,0-.45-.02-.9-.03-1.35,2.93-.06,5.87-.09,8.81-.09,0,.45,0,.9,0,1.35-.69.4-1.54.69-2.54.86-.12,1.02-.31,2.03-.56,3.02-.25,1-.54,1.93-.87,2.81-.33.88-.68,1.67-1.05,2.36-.37.69-.74,1.23-1.1,1.61.88.73,1.78,1.37,2.68,1.93.9.56,1.78,1.08,2.65,1.56.63.28,1.26.57,1.89.86,0,.45,0,.9,0,1.35-2.14,0-4.28,0-6.42.03Zm-5.53-4c-.81-.62-1.64-1.32-2.5-2.12-.85-.8-1.67-1.61-2.44-2.43-.78-.82-1.49-1.62-2.13-2.39-.64-.77-1.16-1.44-1.54-1.98-.7.88-1.19,1.72-1.47,2.5-.29.78-.4,1.69-.35,2.73.05.87.24,1.67.58,2.38.34.72.79,1.32,1.35,1.83.56.5,1.21.89,1.94,1.15.73.26,1.52.38,2.36.35.74-.03,1.5-.2,2.27-.52.77-.32,1.42-.82,1.95-1.49Zm-8.42-16.15c.02.35.11.73.29,1.14.17.41.39.83.66,1.23.26.41.55.81.86,1.19.31.38.62.72.91,1.01.85-.64,1.46-1.4,1.84-2.28.38-.88.53-1.81.44-2.79-.08-.65-.32-1.2-.74-1.64-.42-.44-1.05-.65-1.88-.61-.86.04-1.48.33-1.86.89-.38.56-.55,1.17-.52,1.85Z"/>
    <path d="m98.09,48.09c0-.45,0-.9.01-1.35.42-.23.89-.43,1.42-.6.52-.17,1.07-.3,1.64-.38.12-6.68.25-13.36.37-20.04-.6-.13-1.17-.29-1.73-.47-.56-.18-1.05-.39-1.46-.6,0-.45,0-.9.01-1.35,1.52.02,3.04.04,4.56.07.45,0,1,.01,1.65,0,.66,0,1.34-.02,2.05-.03.71-.01,1.4-.03,2.07-.04.67-.01,1.24,0,1.71.01,2.28.09,4.31.46,6.07,1.11,1.76.64,3.23,1.53,4.39,2.65,1.16,1.12,2.02,2.47,2.56,4.05.54,1.58.73,3.37.58,5.37-.15,1.95-.59,3.71-1.31,5.26-.72,1.56-1.71,2.86-2.98,3.91-1.26,1.05-2.82,1.83-4.66,2.36-1.84.53-3.97.73-6.41.64-.32-.01-.75-.05-1.29-.1-.54-.05-1.12-.11-1.73-.16-.61-.05-1.23-.11-1.84-.16-.61-.05-1.15-.08-1.62-.09-1.35-.03-2.71-.05-4.06-.06Zm11.7-22.48c-.47-.02-.94-.02-1.41-.02-.47,0-.88.03-1.22.07-.22,6.83-.44,13.66-.67,20.49.1.03.27.05.52.07.25.02.5.04.76.06.26.02.51.04.76.06.25.02.43.03.56.04,1.43.06,2.66-.17,3.69-.69,1.03-.52,1.89-1.24,2.6-2.17.7-.93,1.24-2.03,1.62-3.31.38-1.28.61-2.65.7-4.11.08-1.3,0-2.55-.25-3.78-.25-1.22-.68-2.32-1.3-3.3-.62-.98-1.46-1.78-2.51-2.4-1.05-.62-2.34-.96-3.85-1.02Z"/>
    <path d="m137.05,50.51c-3.82-.44-7.64-.81-11.47-1.13.04-.45.07-.89.11-1.34,1.03-.43,2.06-.69,3.08-.76.61-6.65,1.22-13.31,1.83-19.96-.51-.12-1.05-.3-1.6-.53-.56-.24-1.05-.49-1.47-.76.04-.45.07-.89.11-1.34,4.08.34,8.15.74,12.22,1.21-.05.45-.1.89-.15,1.34-.5.2-1.04.36-1.61.48-.58.11-1.13.18-1.66.19-.71,6.64-1.41,13.29-2.12,19.93.48.15.98.33,1.49.55.51.22.97.49,1.39.8-.05.45-.1.89-.15,1.34Z"/>
    <path d="m159.18,46.15c.51.09,1.02.18,1.52.26.03.39.05.85.04,1.39,0,.54-.03,1.11-.07,1.71-.04.6-.11,1.2-.18,1.78-.08.59-.16,1.11-.24,1.58-.94.36-2.07.53-3.38.53-1.31,0-2.64-.11-3.98-.33-2.02-.32-3.82-.83-5.4-1.54-1.58-.71-2.89-1.66-3.92-2.86-1.03-1.19-1.77-2.63-2.22-4.32-.45-1.68-.54-3.65-.27-5.9.27-2.23.86-4.1,1.79-5.61.93-1.51,2.08-2.71,3.46-3.57,1.38-.87,2.93-1.42,4.65-1.67,1.72-.24,3.49-.22,5.31.06,1.72.27,3.25.63,4.6,1.09,1.35.45,2.43.95,3.25,1.48-.07.37-.17.84-.31,1.42-.14.57-.31,1.17-.52,1.8-.2.62-.42,1.23-.64,1.83-.22.6-.42,1.09-.6,1.5-.53-.09-1.07-.19-1.6-.28-.4-1.88-.81-3.75-1.23-5.63-.21-.15-.57-.31-1.08-.46-.5-.15-1.03-.27-1.57-.36-1.06-.17-2.09-.13-3.07.12-.99.25-1.91.74-2.75,1.48-.84.74-1.56,1.74-2.15,3-.59,1.26-1.01,2.82-1.27,4.67-.46,3.35-.1,6.01,1.05,8.01,1.15,2,2.91,3.18,5.31,3.56.68.11,1.28.15,1.77.12.49-.03.84-.12,1.05-.28.87-1.53,1.75-3.06,2.64-4.58Z"/>
    <path d="m187.57,34.26c-.3,1.02-.64,2.07-1.03,3.14-.39,1.07-.8,2.07-1.23,2.98-.52-.12-1.04-.24-1.55-.36-.27-1.49-.54-2.98-.82-4.47-2.39-.54-4.78-1.07-7.18-1.56-.59,2.83-1.18,5.66-1.77,8.49,1.53.32,3.06.65,4.59.98.75-.77,1.5-1.53,2.25-2.29.4.09.81.18,1.21.27-.13,1.16-.36,2.42-.67,3.81-.32,1.38-.67,2.66-1.07,3.82-.39-.09-.79-.18-1.18-.27-.34-1.03-.68-2.06-1.03-3.1-1.52-.34-3.04-.66-4.56-.98-.63,3-1.25,6.01-1.88,9.01,2.37.49,4.75,1.01,7.11,1.55.98-1.31,1.96-2.63,2.95-3.93.5.12,1.01.24,1.51.36,0,.46-.03.98-.06,1.55-.03.57-.09,1.16-.17,1.76-.08.6-.17,1.2-.28,1.81-.11.6-.22,1.16-.34,1.67-6.51-1.56-13.06-2.95-19.63-4.16.08-.44.16-.88.24-1.32.45-.13.95-.24,1.5-.33.55-.09,1.11-.13,1.69-.11,1.27-6.56,2.53-13.12,3.8-19.68-.5-.19-1.02-.43-1.56-.71-.55-.28-1.02-.58-1.41-.89.08-.44.16-.88.24-1.32,6.81,1.26,13.59,2.69,20.34,4.3Z"/>
    <path d="m79.55,53.9c0,.3-.01.61-.04.93-.02.32-.05.62-.1.9-.14,0-.28.01-.42.02-.17-.39-.35-.77-.52-1.16-.64.03-1.28.06-1.92.09.04.82.08,1.63.12,2.45.41-.02.83-.04,1.24-.06.14-.26.28-.53.41-.79.11,0,.22,0,.33-.01.05.32.08.69.1,1.09.02.4.02.77,0,1.12-.11,0-.22,0-.32.01-.16-.26-.32-.51-.48-.77-.41.02-.83.04-1.24.06.04.87.08,1.73.12,2.6.66-.03,1.31-.06,1.97-.09.16-.43.32-.86.48-1.29.14,0,.28-.01.42-.02.03.13.06.27.1.43.03.16.06.32.08.49.02.17.04.34.06.51.02.17.03.33.03.48-1.82.07-3.63.15-5.45.25,0-.13-.01-.25-.02-.38.11-.07.24-.13.37-.19.14-.06.28-.11.44-.14-.1-1.88-.19-3.77-.29-5.65-.14-.02-.28-.05-.44-.09-.16-.04-.29-.09-.41-.15,0-.13-.01-.25-.02-.38,1.8-.1,3.6-.18,5.4-.25Z"/>
    <path d="m83.27,59.68c0-.17-.07-.32-.2-.44-.13-.12-.29-.23-.48-.34-.19-.1-.4-.2-.62-.3-.22-.1-.43-.22-.62-.35-.19-.14-.35-.3-.48-.49-.13-.19-.2-.42-.21-.7,0-.2.03-.38.12-.55.09-.17.21-.31.37-.43.16-.12.35-.21.58-.29.23-.07.47-.11.74-.12.37-.01.71,0,1.03.05.32.05.6.12.84.21-.02.21-.07.44-.14.69-.08.25-.15.47-.22.67-.12,0-.23,0-.35,0-.15-.34-.3-.67-.46-1.01-.08-.03-.17-.05-.26-.06-.09,0-.19,0-.3,0-.2,0-.36.07-.46.19-.1.12-.15.25-.14.4,0,.17.07.31.2.43.13.12.29.23.48.33.19.1.4.2.62.3.22.1.43.22.62.35.19.13.35.29.48.47.13.18.2.41.2.66.01.46-.17.83-.54,1.1-.37.27-.87.42-1.5.44-.32,0-.66-.01-1-.07-.34-.05-.64-.14-.9-.25,0-.24.05-.49.14-.74.09-.25.19-.47.3-.67.11,0,.23,0,.34-.01.18.36.36.72.53,1.07.08.05.16.08.25.09.09,0,.18,0,.26,0,.19,0,.37-.07.53-.19.16-.12.23-.28.23-.48Z"/>
    <path d="m84.92,55.98c.25-.17.52-.29.81-.37,0-.27-.01-.54-.02-.81.05-.04.19-.1.4-.18.21-.08.45-.15.72-.2.12,0,.23,0,.35,0,0,.42.02.85.02,1.27.45,0,.9-.02,1.35-.02,0,.22,0,.43,0,.65-.45,0-.9.01-1.34.02.02.86.03,1.72.05,2.57,0,.41.06.7.17.85.11.16.28.23.52.23.12,0,.26-.01.41-.03.15-.02.29-.05.42-.1.03.11.05.22.08.33-.06.06-.15.13-.26.19-.12.07-.25.13-.4.2-.15.06-.31.11-.49.16-.18.04-.36.07-.56.07-.44,0-.76-.1-.98-.32-.22-.22-.34-.58-.35-1.09-.02-1.01-.05-2.02-.07-3.04-.27,0-.54.01-.82.02,0-.13,0-.27-.01-.4Z"/>
    <path d="m93.1,55.83c-.12,0-.23,0-.35,0-.04-.1-.09-.22-.14-.35-.05-.13-.1-.27-.16-.42-.06-.15-.11-.29-.16-.43-.05-.14-.09-.27-.12-.39.24-.2.54-.38.92-.52.37-.15.83-.22,1.36-.22.38,0,.7.05.98.14.27.09.5.23.68.39.18.17.31.36.4.58.08.22.13.46.12.71,0,.41-.1.79-.29,1.15-.19.36-.43.7-.71,1.02-.28.32-.58.61-.9.88-.32.27-.6.51-.86.73-.18.12-.35.23-.52.35,0,.01,0,.03,0,.04.21-.02.41-.04.62-.06.58,0,1.16,0,1.74,0,.17-.37.33-.75.5-1.12.11,0,.23,0,.34,0,.02.16.04.35.06.56.02.21.04.43.06.65.02.22.03.42.05.62.01.2.02.35.02.47-1.54-.01-3.08-.01-4.61,0,0-.21,0-.43,0-.64.17-.15.37-.33.59-.54.22-.2.45-.43.68-.67.23-.24.45-.5.68-.78.22-.27.42-.55.6-.83.18-.28.32-.57.42-.86.11-.29.16-.58.16-.86,0-.37-.1-.67-.3-.9-.2-.23-.49-.35-.86-.35-.12,0-.22,0-.31.02-.09.01-.2.04-.31.07-.13.52-.25,1.03-.37,1.55Z"/>
    <path d="m97.65,57.13c0-.6.08-1.12.21-1.57.14-.45.33-.82.56-1.12.24-.3.52-.53.85-.67.33-.15.68-.22,1.07-.21.82.01,1.47.33,1.93.94.47.61.68,1.52.65,2.73-.01.6-.09,1.12-.24,1.57-.14.45-.34.82-.58,1.12-.25.3-.53.52-.87.67-.33.15-.69.22-1.08.21-.41,0-.77-.09-1.08-.26-.31-.17-.58-.41-.79-.72-.22-.31-.38-.69-.48-1.14-.11-.45-.16-.96-.15-1.53Zm1.53.02c0,.48,0,.9.03,1.28.02.38.08.7.15.96.08.26.18.46.31.61.13.14.29.21.5.22.24,0,.43-.05.58-.16.15-.11.28-.29.37-.53.1-.24.16-.56.21-.94.04-.38.07-.85.08-1.4,0-.48,0-.9-.02-1.28-.02-.38-.07-.7-.14-.96-.07-.26-.18-.47-.33-.61-.14-.14-.34-.21-.58-.22-.22,0-.4.05-.55.16-.14.11-.26.29-.35.53-.09.24-.15.56-.19.95-.04.39-.06.85-.07,1.39Z"/>
    <path d="m107.77,60.87c-1.16-.04-2.32-.08-3.48-.11,0-.14,0-.29.01-.43.17-.07.34-.13.51-.18.17-.05.35-.1.52-.13.05-1.53.09-3.06.14-4.59.02-.2.04-.39.06-.59-.19.05-.39.09-.6.1-.2.01-.42.01-.64,0-.01-.12-.03-.25-.04-.37.36-.08.76-.2,1.19-.35.43-.15.83-.32,1.2-.52.12,0,.23,0,.35.01-.07,2.12-.15,4.23-.22,6.35.17.04.33.1.5.16.17.06.33.13.5.21,0,.14-.01.29-.02.43Z"/>
    <path d="m109.35,56.1c.01-.34.09-.65.22-.92.13-.27.32-.51.55-.7.23-.19.5-.34.81-.44.31-.1.66-.14,1.03-.12.4.02.75.1,1.06.25.31.15.56.34.77.59.21.24.36.54.45.88.09.34.13.72.11,1.12-.03.62-.16,1.18-.38,1.7-.22.51-.51.96-.87,1.34-.36.38-.79.68-1.28.91-.49.23-1.03.36-1.61.39-.07-.15-.14-.29-.21-.44.78-.17,1.39-.5,1.84-1,.44-.5.74-1.13.88-1.88-.14.16-.31.29-.53.38-.21.1-.49.14-.82.12-.29-.01-.56-.07-.81-.17-.25-.1-.47-.24-.65-.42-.19-.18-.33-.41-.43-.67-.1-.26-.14-.57-.13-.91Zm1.53,0c0,.19,0,.38.04.55.04.18.1.33.18.47.08.14.19.25.31.33.13.08.28.13.45.14.2,0,.38-.02.54-.09.16-.07.28-.17.37-.3.02-.09.03-.19.05-.32.01-.13.02-.25.03-.37.01-.26,0-.51-.02-.75-.03-.24-.08-.45-.15-.63-.07-.18-.17-.33-.3-.44-.12-.11-.28-.17-.47-.18-.34-.02-.59.11-.76.37-.16.26-.26.67-.28,1.21Z"/>
    <path d="m69.59,59.42c-11.52.77-23,2.09-34.43,3.95-.11-.66-.21-1.32-.32-1.97,11.48-1.87,23.04-3.19,34.61-3.97.04.67.09,1.33.13,2Z"/>
    <path d="m153.61,63.44c-11.42-1.87-22.91-3.2-34.42-3.99.05-.67.09-1.33.14-2,11.58.79,23.13,2.13,34.61,4.01-.11.66-.22,1.32-.32,1.97Z"/>
    <path d="m78.03,16c-16.65.66-33.26,2.32-49.76,5.01-.11-.66-.21-1.32-.32-1.97,16.57-2.7,33.27-4.37,50-5.03.03.67.05,1.33.08,2Z"/>
    <path d="m160.56,21.09c-16.49-2.71-33.11-4.4-49.75-5.07.03-.67.05-1.33.08-2,16.73.68,33.42,2.38,49.99,5.1-.11.66-.22,1.32-.32,1.97Z"/>
    <path d="m108.24,4.88c-.11-.1-.26-.08-.41-.03-.35.11-.69.22-1.04.32-.76.22-1.52.44-2.27.66-.75.22-1.49.46-2.24.66-.36.1-.61.31-.83.59-.22.28-.25.63-.31.97-.17,1.02-.35,2.03-.52,3.05-.12.72-.24,1.44-.37,2.16-.07.42-.15.84-.21,1.26-.04.25.09.39.3.38.07-.01.15-.02.22-.04,1.09-.33,2.19-.66,3.28-.99.78-.23,1.56-.45,2.33-.69.5-.16.85-.53.95-1.05.19-.99.35-1.98.52-2.98.22-1.3.43-2.6.65-3.9.02-.14.04-.28-.06-.37Zm-5.64,4.15c-.36.1-.75-.08-.72-.6.04-.6.52-1.16,1.05-1.3.39-.11.69.13.69.56.03.53-.53,1.21-1.02,1.34Zm1.43,1.76c-.39.07-.63-.16-.63-.59,0-.59.53-1.24,1.08-1.34.36-.07.61.13.65.5.06.62-.52,1.32-1.09,1.43Zm2.6.45c-.04.6-.5,1.12-1.07,1.3-.06.02-.11,0-.16,0-.29.06-.57-.31-.49-.71.1-.59.5-1.09,1.1-1.23.38-.09.66.18.63.64Zm-6.19-2.43c.08-.48.16-.97.24-1.41-.02-.51-.17-.93-.52-1.21-.62-.5-1.27-.95-1.91-1.42-.8-.59-1.6-1.19-2.4-1.78-.21-.16-.41-.34-.65-.45-.2-.1-.32-.04-.4.18-.03.08-.05.17-.06.25-.21,1.26-.43,2.53-.64,3.79-.06.34-.12.69-.18,1.03-.03.14,0,.22.15.26.21.05.41.13.61.21.68.27,1.13.79,1.27,1.51.17.9.25,1.81.35,2.72.02.15.08.24.19.32.58.42,1.15.85,1.72,1.27.27.2.52.42.82.59.2.11.35.05.42-.17.02-.06.04-.13.05-.2.19-1.12.38-2.25.57-3.37.12-.7.24-1.41.36-2.11Zm-3.68-2.85c-.04.28-.17.49-.45.56-.25.06-.46-.08-.62-.26-.29-.31-.43-.69-.44-1.1,0-.27.04-.52.24-.69.25-.2.52-.17.78.08.39.38.55.85.48,1.4Zm1.92,6.67c-.18.21-.38.28-.62.17-.57-.28-.93-1.25-.61-1.84.2-.37.54-.35.79-.17.43.31.59.75.61,1.25-.01.22-.03.42-.17.59Zm-3.03-10.5c.69.52,1.38,1.02,2.07,1.53.84.63,1.69,1.25,2.53,1.88.4.3.84.47,1.36.47.05,0,.11,0,.17-.01.43-.04.83-.21,1.24-.32.67-.18,1.33-.4,1.99-.6.92-.28,1.84-.55,2.77-.82.08-.02.16-.06.18-.15.02-.08-.05-.13-.11-.18-.61-.46-1.22-.92-1.83-1.38-.95-.7-1.91-1.39-2.85-2.11-.52-.39-1.1-.56-1.72-.4-1.03.27-2.05.59-3.07.89-.88.26-1.76.53-2.64.79-.09.03-.21.04-.23.15-.03.12.08.18.16.24Zm5.39.13c.17-.08.36-.08.51-.09.44,0,.83.09,1.17.35.17.13.29.3.24.52-.05.2-.21.31-.41.36-.58.14-1.11.04-1.59-.31-.36-.26-.32-.65.08-.83Z"/>
    <path d="m96.28,16.9c-.03-.53-.12-1.06-.19-1.59-.14-1.09-.28-2.17-.42-3.26-.09-.69-.15-1.39-.26-2.08-.05-.35-.17-.52-.57-.26-.42.27-.83.56-1.25.84-.67.45-1.34.9-2.01,1.34-.51.34-1.02.69-1.54,1.02-.46.29-.69.72-.75,1.28.03.28.06.59.1.89.15,1.18.29,2.36.44,3.54.11.87.22,1.74.33,2.61.05.37.23.48.54.28.51-.32,1-.66,1.5-.99,1.12-.75,2.23-1.51,3.35-2.26.48-.32.73-.78.7-1.35Zm-6.02-1.86c-.2-.53.09-1.38.56-1.65.43-.25.75-.03.83.45.01.08.04.17.02.21-.08.56-.27,1-.74,1.26-.26.14-.58,0-.69-.27Zm1.37,4.81c-.34.25-.71.08-.82-.33-.15-.56.21-1.27.53-1.5.47-.33.85-.03.9.46,0,.04,0,.09,0,.13-.01.51-.21.94-.62,1.23Zm1.5-3.48c-.16.16-.37.28-.62.19-.24-.09-.32-.29-.35-.53-.06-.58.14-1.06.59-1.42.29-.23.7-.15.83.29.04.11.04.23.05.3-.03.49-.18.87-.49,1.17Zm.42-3.55c-.19-.56.15-1.42.71-1.65.25-.1.48-.03.61.21.08.14.12.29.11.44,0,.52-.2.94-.59,1.25-.26.21-.69.2-.84-.26Zm1.46,4.8c-.18.16-.38.24-.61.13-.23-.11-.29-.34-.32-.58,0-.04,0-.08,0-.11.03-.5.2-.95.61-1.23.39-.27.76-.14.85.44.08.53-.11,1-.53,1.35Zm-5.38,3.56c-.08-.63-.17-1.25-.25-1.88-.08-.66-.15-1.32-.24-1.98-.12-.95-.24-1.9-.37-2.84-.08-.58-.4-1-.95-1.19-1.56-.55-3.13-1.1-4.69-1.65-.29-.1-.59-.2-.88-.3-.32-.11-.49.01-.46.36.03.36.08.73.12,1.09.12.96.25,1.92.37,2.88.12.94.22,1.89.35,2.83.09.66.46,1.11,1.08,1.32.44.15.87.3,1.31.45,1.37.48,2.75.95,4.12,1.43.35.12.51,0,.5-.34,0-.06,0-.11-.01-.17Zm-6.72-8.4c.19-.16.41-.16.61-.05.5.26.8.69.85,1.26.03.35-.17.56-.48.57-.25,0-.45-.12-.63-.29-.29-.25-.47-.57-.51-.95-.02-.2,0-.4.16-.54Zm.12,2.84c-.04-.48.32-.77.75-.58.54.24.79.7.89,1.21,0,.26-.03.45-.22.57-.22.13-.45.09-.65-.04-.42-.27-.72-.63-.77-1.16Zm1.17,3.54c-.51-.24-.82-.66-.87-1.25-.04-.46.32-.72.73-.56.51.21.87.78.9,1.31,0,.44-.35.68-.76.49Zm2.12-4.81c.02-.38.33-.55.64-.48.5.12,1,.77,1,1.3-.02.46-.27.71-.74.54-.49-.19-.92-.84-.89-1.36Zm1.17,1.95c.44.26.71.66.76,1.19.04.45-.28.69-.7.57-.44-.13-.96-.8-.93-1.31-.02-.52.41-.72.87-.45Zm.27,4.05c-.46-.19-.86-.81-.85-1.32,0-.39.27-.62.64-.5.48.15.78.5.94.98.03.1.04.21.06.29-.01.52-.33.74-.78.56Zm-5.39-9.59c.15.07.3.11.45.16,1.57.54,3.13,1.09,4.7,1.63.34.12.67.28,1.03.25.44,0,.83-.11,1.2-.35.18-.12.35-.25.53-.37.66-.44,1.33-.88,2-1.32.75-.5,1.5-1.01,2.25-1.52.1-.07.23-.13.22-.26-.01-.13-.16-.14-.26-.18-.58-.21-1.17-.41-1.76-.62-1.25-.43-2.5-.88-3.76-1.3-.59-.2-1.18-.13-1.71.23-.81.54-1.62,1.1-2.44,1.65-.68.46-1.36.91-2.04,1.36-.15.1-.3.2-.44.31-.18.14-.18.24.03.33Zm8.62-1.69c.41-.36,1.28-.49,1.76-.2.24.14.28.4.06.6-.32.3-.72.36-1.13.38-.22,0-.43-.02-.62-.13-.28-.16-.32-.42-.07-.63Zm-1.33,2.37c-.22.3-.55.39-.88.43-.34.05-.7.06-1.01-.17-.18-.14-.21-.34-.06-.51.24-.28.56-.35.89-.4.11-.02.22-.03.33-.01.25,0,.49.04.69.21.15.12.16.3.04.45Zm-2.22-3.59c.25-.18.62-.28,1-.29.19,0,.38,0,.56.08.38.15.45.47.13.72-.41.33-1.21.42-1.66.18-.34-.18-.35-.48-.03-.7Zm-3.3,2.14c.29-.26.65-.34,1.02-.37.24-.02.48,0,.71.11.14.07.25.15.26.33,0,.18-.1.29-.23.38-.3.2-.64.3-1.05.31-.21-.02-.47-.01-.69-.19-.21-.16-.22-.39-.02-.57Z"/>
  </g>
  <g style="fill:#000;">
    <path d="m35.83,81.27v-.34c.11-.07.24-.12.37-.17.13-.05.25-.08.37-.09v-5.09c-.12-.02-.25-.06-.38-.1s-.25-.1-.36-.16v-.34h1.45c.23,0,.44,0,.65-.03.2-.02.44-.03.7-.03.29,0,.57.02.84.06.27.04.51.12.72.22.21.11.38.26.5.46s.19.45.19.75c0,.19-.03.37-.1.54-.07.17-.17.31-.29.44-.12.13-.27.23-.43.31s-.34.14-.54.18v.04c.19.02.39.07.58.14.2.07.37.16.53.29.16.13.28.28.38.47.1.19.15.41.15.67,0,.32-.07.6-.22.84s-.34.43-.58.58c-.24.15-.52.26-.83.33-.31.07-.64.1-.97.1-.13,0-.26,0-.41,0-.15,0-.3-.01-.45-.02-.15,0-.3-.01-.44-.02s-.26,0-.36,0h-1.07Zm2.32-3.49c.1,0,.2,0,.31-.01.1,0,.2-.02.29-.03.23-.1.42-.24.57-.45.14-.2.22-.43.22-.69,0-.38-.1-.66-.3-.83-.2-.18-.45-.26-.76-.26-.13,0-.25,0-.34,0-.1,0-.18.01-.26.03v2.24h.29Zm.4,2.96c.38,0,.67-.11.89-.34.22-.23.32-.52.32-.9,0-.23-.04-.42-.11-.56-.07-.15-.17-.26-.3-.35s-.28-.15-.45-.18-.36-.05-.57-.05h-.48v2.31c.08.02.17.03.27.04s.23.02.42.02Z"/>
    <path d="m41.84,78.12c0-.47.07-.9.2-1.3.13-.4.33-.74.58-1.04s.58-.52.95-.68.81-.24,1.3-.24.93.08,1.31.24.69.39.95.68.45.64.58,1.04c.13.4.2.83.2,1.3s-.07.9-.2,1.3c-.13.4-.33.74-.58,1.04s-.57.52-.95.68-.81.24-1.31.24-.93-.08-1.3-.24-.7-.39-.95-.68-.45-.64-.58-1.04c-.13-.4-.2-.83-.2-1.3Zm1.53,0c0,.38.03.74.09,1.07.06.33.15.61.28.85.13.24.29.42.49.56.2.13.44.2.72.2.26,0,.48-.07.66-.2s.33-.32.44-.56c.11-.24.2-.52.25-.85.05-.33.08-.68.08-1.07s-.03-.74-.09-1.07c-.06-.33-.15-.61-.27-.85s-.28-.42-.49-.56c-.2-.14-.45-.2-.73-.2s-.51.07-.69.2c-.19.13-.33.32-.45.56-.11.24-.19.52-.23.85-.04.33-.07.68-.07,1.07Z"/>
    <path d="m50.01,81.27h-2.22v-.34c.1-.06.2-.11.31-.16.11-.05.22-.08.33-.1l2.32-5.81h.67l2.26,5.81c.12.02.24.06.36.1.12.04.22.1.31.16v.34h-2.82v-.34c.11-.05.24-.11.37-.15.13-.05.26-.08.38-.11l-.52-1.43h-2l-.53,1.43c.28.04.54.12.78.26v.34Zm-.04-2.62h1.59l-.58-1.72-.17-.77h-.02l-.2.79-.62,1.7Z"/>
    <path d="m56.62,80.67c.14.03.26.07.37.12.11.05.21.1.32.14v.34h-2.77v-.34c.13-.07.26-.13.38-.17s.24-.07.36-.09v-5.09c-.3-.07-.55-.15-.74-.26v-.34h.95c.12,0,.26,0,.41,0,.15,0,.31-.01.48-.02.17,0,.34-.02.51-.03s.34-.01.5-.01c.33,0,.63.04.91.11.28.08.52.19.72.34.2.15.36.34.47.57.11.23.17.49.17.79,0,.43-.1.79-.31,1.07s-.5.49-.86.62c.24.38.5.76.77,1.15.27.39.55.77.85,1.13l.43.29v.31h-1.5l-.39-.29c-.28-.33-.52-.71-.73-1.14-.21-.43-.4-.86-.56-1.27h-.73v2.11Zm.45-5.19c-.19,0-.34.02-.45.05v2.51h.53c.31,0,.57-.11.79-.33.22-.22.33-.54.33-.98,0-.22-.03-.41-.09-.57s-.14-.29-.25-.39c-.11-.1-.24-.18-.38-.22-.15-.05-.3-.07-.47-.07Z"/>
    <path d="m60.8,81.27v-.34c.1-.06.22-.11.34-.16.13-.05.26-.08.4-.1v-5.09c-.14-.03-.27-.07-.4-.11s-.24-.09-.34-.15v-.34h1.04c.1,0,.23,0,.38,0,.15,0,.31-.01.47-.02.16,0,.32-.02.47-.03.15,0,.28-.01.39-.01.52,0,.99.07,1.4.21.41.14.76.34,1.04.6.28.26.5.59.66.98.15.39.23.84.23,1.35s-.07.95-.22,1.36c-.14.41-.36.76-.65,1.04s-.65.51-1.09.67c-.44.16-.96.24-1.55.24-.08,0-.18,0-.31-.01-.13,0-.27-.02-.42-.03-.15,0-.3-.02-.45-.03-.15,0-.28-.01-.4-.01h-.99Zm2.64-5.79c-.11,0-.22,0-.32,0-.11,0-.2.02-.28.03v5.21s.07.01.13.01c.06,0,.12,0,.18,0,.06,0,.12,0,.18,0s.1,0,.13,0c.35,0,.64-.07.89-.22.24-.14.44-.34.6-.58s.27-.53.34-.86.11-.68.11-1.05c0-.33-.04-.65-.11-.95-.07-.31-.19-.58-.35-.82-.16-.24-.36-.43-.61-.58-.25-.14-.55-.22-.9-.22Z"/>
    <path d="m75.4,80.87c-.12.06-.27.12-.44.18-.17.06-.36.11-.55.16-.19.05-.38.09-.58.12-.19.03-.36.04-.51.04-.52,0-.98-.07-1.38-.2s-.75-.34-1.04-.61c-.29-.27-.5-.61-.65-1.02-.15-.41-.23-.88-.23-1.42,0-.59.09-1.09.28-1.5.18-.41.43-.75.73-1.01.3-.26.65-.45,1.03-.57s.78-.18,1.18-.18.77.03,1.12.08c.35.05.62.13.83.23,0,.09,0,.21-.01.35,0,.14-.02.29-.04.45-.02.16-.04.32-.07.49-.03.16-.06.31-.09.44h-.37l-.5-1.37c-.07-.03-.17-.05-.3-.07-.13-.01-.26-.02-.4-.02-.25,0-.48.05-.71.14-.23.1-.43.25-.6.46s-.31.49-.41.83c-.1.34-.15.75-.15,1.24,0,.4.05.76.14,1.08s.22.61.39.84c.17.23.37.42.6.55.23.13.49.2.77.2.09,0,.18,0,.28-.02.1-.02.19-.04.27-.06.08-.02.16-.05.22-.08.06-.03.11-.06.13-.08v-1.69c-.16-.01-.3-.04-.44-.09s-.27-.1-.39-.17v-.34h2.46v.34c-.05.05-.13.1-.22.15-.09.04-.2.08-.34.11v2.02Z"/>
    <path d="m78.28,81.27h-2.22v-.34c.1-.06.2-.11.31-.16.11-.05.22-.08.33-.1l2.32-5.81h.67l2.26,5.81c.12.02.24.06.36.1.12.04.22.1.31.16v.34h-2.82v-.34c.11-.05.24-.11.37-.15.13-.05.26-.08.38-.11l-.52-1.43h-2l-.53,1.43c.28.04.54.12.78.26v.34Zm-.04-2.62h1.59l-.58-1.72-.17-.77h-.02l-.2.79-.62,1.7Z"/>
    <path d="m90.8,81.27h-2.69v-.34c.12-.06.24-.11.35-.15s.24-.08.37-.11v-3.76l.04-1.05h-.07l-.3.96-1.74,4.46h-.41l-1.73-4.42-.32-1.05h-.08v1.14s0,3.69,0,3.69c.11.02.24.06.38.12.14.05.27.11.39.18v.34h-2.2v-.34c.1-.05.21-.11.36-.17.14-.07.27-.11.4-.14v-5.05c-.12-.02-.25-.06-.38-.1s-.25-.1-.36-.16v-.34h2.44l1.38,3.66.26.86h0l.27-.88,1.4-3.64h2.23v.34c-.1.06-.21.11-.33.16s-.24.08-.36.1v5.1c.13.02.25.06.36.11.12.05.22.1.31.14v.34Z"/>
    <path d="m95.91,74.97c-.01.27-.03.55-.06.84-.03.29-.07.56-.12.81h-.37l-.41-1.06h-1.68v2.21h1.1l.4-.69h.29c.03.29.04.62.04.98s-.01.7-.04,1.01h-.29l-.4-.71h-1.1v2.34h1.76l.48-1.14h.37c.02.11.05.24.07.39.02.14.04.29.06.45.02.15.03.31.04.46,0,.16.01.3.01.43h-4.87v-.34c.1-.05.22-.11.34-.15s.26-.08.4-.11v-5.09c-.12-.02-.25-.06-.38-.1-.13-.04-.25-.1-.36-.16v-.34h4.73Z"/>
    <path d="m103.72,79.38h.37c.02.1.05.21.07.35.02.14.04.28.05.43.01.15.03.3.03.45,0,.15,0,.29,0,.41-.21.13-.47.22-.79.28-.32.05-.64.08-.97.08-.5,0-.95-.06-1.35-.18-.4-.12-.75-.32-1.04-.58-.28-.27-.5-.61-.66-1.02s-.23-.9-.23-1.48.09-1.06.26-1.47c.17-.41.4-.75.69-1.01.29-.26.62-.46,1-.58.38-.12.78-.18,1.2-.18.4,0,.75.03,1.08.09.32.06.58.13.79.23,0,.1,0,.22-.01.37,0,.15-.02.31-.04.47-.02.17-.04.33-.07.49s-.05.29-.08.4h-.38l-.5-1.36c-.05-.03-.14-.05-.26-.07-.12-.02-.24-.03-.37-.03-.25,0-.48.05-.69.15-.22.1-.41.26-.58.47s-.3.49-.4.83c-.1.34-.14.75-.14,1.22,0,.86.17,1.52.51,1.98.34.46.81.69,1.39.69.17,0,.31-.01.43-.04s.2-.06.24-.11l.44-1.26Z"/>
    <path d="m106.95,81.27h-2.22v-.34c.1-.06.2-.11.31-.16.11-.05.22-.08.33-.1l2.32-5.81h.67l2.26,5.81c.12.02.24.06.36.1.12.04.22.1.31.16v.34h-2.82v-.34c.11-.05.24-.11.37-.15.13-.05.26-.08.38-.11l-.52-1.43h-2l-.53,1.43c.28.04.54.12.78.26v.34Zm-.04-2.62h1.59l-.58-1.72-.17-.77h-.02l-.2.79-.62,1.7Z"/>
    <path d="m113.46,80.67c.28.04.54.12.78.26v.34h-2.78v-.34c.1-.05.2-.1.31-.15.11-.04.22-.08.34-.11v-5.09c-.14-.03-.26-.07-.36-.12-.11-.05-.2-.1-.28-.14v-.34h4.71c0,.12,0,.25-.02.39-.01.14-.03.29-.04.43-.01.15-.03.29-.05.43-.02.14-.04.27-.07.39h-.37l-.41-1.06h-1.75v2.37h1.29l.35-.62h.28c.04.31.06.62.05.94,0,.32-.02.62-.05.89h-.28l-.35-.63h-1.29v2.16Z"/>
    <path d="m121.38,74.97c-.01.27-.03.55-.06.84-.03.29-.07.56-.12.81h-.37l-.41-1.06h-1.68v2.21h1.1l.4-.69h.29c.03.29.04.62.04.98s-.01.7-.04,1.01h-.29l-.4-.71h-1.1v2.34h1.76l.48-1.14h.37c.02.11.05.24.07.39.02.14.04.29.06.45.02.15.03.31.04.46,0,.16.01.3.01.43h-4.87v-.34c.1-.05.22-.11.34-.15s.26-.08.4-.11v-5.09c-.12-.02-.25-.06-.38-.1-.13-.04-.25-.1-.36-.16v-.34h4.73Zm-1.66-1.78c.1,0,.21,0,.33.02.12.02.24.04.36.08s.22.07.32.11c.09.04.16.08.19.13v.18l-2.22.86-.25-.22,1.28-1.16Z"/>
    <path d="m130.41,81.27c-.12-.07-.26-.16-.42-.26-.16-.1-.32-.23-.48-.38-.19.19-.45.36-.78.52-.34.15-.72.23-1.15.23-.4,0-.75-.06-1.04-.17-.29-.11-.53-.25-.72-.43-.19-.18-.32-.38-.41-.6s-.13-.45-.13-.67c0-.28.05-.53.16-.76.1-.23.23-.44.38-.62.15-.18.31-.33.48-.46s.32-.23.45-.3c-.15-.16-.28-.36-.39-.58-.11-.23-.16-.45-.16-.67,0-.15.03-.3.09-.45.06-.15.16-.28.29-.4s.29-.21.48-.28c.19-.07.41-.11.66-.11.43,0,.78.1,1.05.29.27.19.41.47.41.83,0,.17-.03.34-.09.5s-.14.3-.24.44c-.1.14-.21.27-.34.39-.13.12-.27.24-.41.34.41.57.98,1.18,1.7,1.82.05-.07.1-.18.16-.33.06-.16.11-.33.15-.53.04-.2.07-.41.08-.63.01-.22,0-.43-.05-.63-.1-.02-.18-.04-.25-.08-.07-.04-.15-.08-.22-.14v-.34h2.05v.34c-.16.1-.36.17-.59.22-.03.26-.08.51-.13.77-.06.25-.13.49-.21.71-.08.22-.17.42-.26.6-.09.17-.18.31-.27.41.21.19.42.35.64.5s.43.28.64.4l.46.22v.34h-1.57Zm-1.32-1.04c-.19-.16-.39-.35-.58-.56s-.39-.42-.56-.64-.34-.43-.48-.63c-.14-.2-.26-.38-.34-.52-.17.22-.3.42-.38.62s-.12.42-.12.69c0,.22.04.43.11.61.07.19.17.35.3.48.13.13.28.24.46.31s.36.11.57.11c.18,0,.37-.04.55-.11.19-.08.35-.2.48-.36Zm-1.84-4.18c0,.09.02.19.05.29.04.11.08.21.14.32.06.11.12.21.19.31.07.1.14.19.2.27.2-.15.35-.34.45-.56.1-.22.14-.45.13-.7-.01-.17-.06-.31-.16-.42-.09-.12-.24-.17-.43-.17s-.34.07-.44.2c-.09.14-.14.29-.14.46Z"/>
    <path d="m135,81.27v-.34c.11-.07.24-.12.37-.17.13-.05.25-.08.37-.09v-5.09c-.12-.02-.25-.06-.38-.1s-.25-.1-.36-.16v-.34h1.45c.23,0,.44,0,.65-.03.2-.02.44-.03.7-.03.29,0,.57.02.84.06.27.04.51.12.72.22.21.11.38.26.5.46s.19.45.19.75c0,.19-.03.37-.1.54-.07.17-.17.31-.29.44-.12.13-.27.23-.43.31s-.34.14-.54.18v.04c.19.02.39.07.58.14.2.07.37.16.53.29.16.13.28.28.38.47.1.19.15.41.15.67,0,.32-.07.6-.22.84s-.34.43-.58.58c-.24.15-.52.26-.83.33-.31.07-.64.1-.97.1-.13,0-.26,0-.41,0-.15,0-.3-.01-.45-.02-.15,0-.3-.01-.44-.02s-.26,0-.36,0h-1.07Zm2.32-3.49c.1,0,.2,0,.31-.01.1,0,.2-.02.29-.03.23-.1.42-.24.57-.45.14-.2.22-.43.22-.69,0-.38-.1-.66-.3-.83-.2-.18-.45-.26-.76-.26-.13,0-.25,0-.34,0-.1,0-.18.01-.26.03v2.24h.29Zm.4,2.96c.38,0,.67-.11.89-.34.22-.23.32-.52.32-.9,0-.23-.04-.42-.11-.56-.07-.15-.17-.26-.3-.35s-.28-.15-.45-.18-.36-.05-.57-.05h-.48v2.31c.08.02.17.03.27.04s.23.02.42.02Z"/>
    <path d="m142.88,81.27h-2.22v-.34c.1-.06.2-.11.31-.16.11-.05.22-.08.33-.1l2.32-5.81h.67l2.26,5.81c.12.02.24.06.36.1.12.04.22.1.31.16v.34h-2.82v-.34c.11-.05.24-.11.37-.15.13-.05.26-.08.38-.11l-.52-1.43h-2l-.53,1.43c.28.04.54.12.78.26v.34Zm-.04-2.62h1.59l-.58-1.72-.17-.77h-.02l-.2.79-.62,1.7Z"/>
    <path d="m149.49,80.67c.14.03.26.07.37.12.11.05.21.1.32.14v.34h-2.77v-.34c.13-.07.26-.13.38-.17s.24-.07.36-.09v-5.09c-.3-.07-.55-.15-.74-.26v-.34h.95c.12,0,.26,0,.41,0,.15,0,.31-.01.48-.02.17,0,.34-.02.51-.03s.34-.01.5-.01c.33,0,.63.04.91.11.28.08.52.19.72.34.2.15.36.34.47.57.11.23.17.49.17.79,0,.43-.1.79-.31,1.07s-.5.49-.86.62c.24.38.5.76.77,1.15.27.39.55.77.85,1.13l.43.29v.31h-1.5l-.39-.29c-.28-.33-.52-.71-.73-1.14-.21-.43-.4-.86-.56-1.27h-.73v2.11Zm.45-5.19c-.19,0-.34.02-.45.05v2.51h.53c.31,0,.57-.11.79-.33.22-.22.33-.54.33-.98,0-.22-.03-.41-.09-.57s-.14-.29-.25-.39c-.11-.1-.24-.18-.38-.22-.15-.05-.3-.07-.47-.07Z"/>
  </g>
</svg>